<?xml version="1.0" standalone="no"?>
<!DOCTYPE svg PUBLIC "-//W3C//DTD SVG 20010904//EN"
 "http://www.w3.org/TR/2001/REC-SVG-20010904/DTD/svg10.dtd">
<svg version="1.0" xmlns="http://www.w3.org/2000/svg"
 width="1080.000000pt" height="1080.000000pt" viewBox="0 0 1080.000000 1080.000000"
 preserveAspectRatio="xMidYMid meet">
<metadata>
Created by potrace 1.16, written by Peter Selinger 2001-2019
</metadata>
<g transform="translate(0.000000,1080.000000) scale(0.100000,-0.100000)"
fill="#000000" stroke="none">
<path d="M4277 6293 c-4 -3 -7 -188 -7 -410 l0 -403 75 0 75 0 0 103 0 103 64
63 c35 35 69 61 74 57 6 -4 68 -75 138 -159 70 -83 130 -156 135 -161 8 -9
165 -13 175 -4 3 4 -74 104 -170 223 -97 119 -176 220 -176 225 0 5 48 60 108
122 208 219 222 235 215 241 -3 4 -39 7 -78 7 l-71 0 -92 -92 c-50 -51 -143
-147 -206 -213 l-115 -120 -1 213 0 212 -68 0 c-38 0 -72 -3 -75 -7z"/>
<path d="M5571 6283 c-23 -44 -361 -795 -361 -803 0 -4 8 -7 18 -5 9 2 44 4
77 4 l60 1 34 83 c19 45 39 88 44 95 7 9 57 12 210 10 l201 -3 37 -89 c20 -48
42 -92 49 -96 10 -6 140 -2 148 5 2 2 -78 181 -233 520 -40 88 -87 190 -103
228 l-31 67 -70 0 c-57 0 -72 -3 -80 -17z m144 -293 c31 -74 63 -148 70 -165
l14 -30 -146 -3 c-80 -1 -147 -1 -149 1 -2 2 29 81 68 175 40 94 76 168 79
164 4 -4 32 -68 64 -142z"/>
<path d="M6430 5890 c0 -225 1 -410 3 -411 26 -6 104 -10 122 -5 l25 6 0 257
c0 160 4 253 9 248 10 -10 68 -105 186 -302 67 -113 68 -113 106 -113 32 0 41
5 53 28 8 15 66 114 130 221 l116 195 0 -266 0 -266 63 -4 c34 -2 68 -2 75 0
10 3 12 91 10 411 l-3 406 -60 3 -60 3 -32 -53 c-174 -294 -225 -381 -253
-430 -17 -32 -35 -58 -38 -58 -4 1 -79 122 -167 270 l-160 270 -62 0 -63 0 0
-410z"/>
<path d="M7787 6293 c-10 -9 -9 -813 1 -813 63 -5 589 -7 598 -3 10 3 14 24
14 63 0 47 -3 60 -17 64 -10 3 -114 5 -231 3 l-212 -2 0 112 0 113 193 2 192
3 3 58 3 57 -88 2 c-48 1 -136 1 -195 -1 l-108 -3 0 111 0 111 220 0 221 0 -3
63 -3 62 -291 3 c-160 1 -293 -1 -297 -5z"/>
<path d="M2524 5783 c9 -27 -1 -30 -21 -5 -11 12 -10 9 1 -10 9 -15 16 -32 16
-38 0 -14 -27 -13 -33 3 -3 6 -3 -2 -1 -18 5 -28 3 -31 -26 -33 -19 -2 -29 1
-25 8 3 5 -3 10 -14 10 -12 0 -21 -4 -21 -10 0 -15 -70 -12 -72 3 -1 6 -5
-249 -8 -568 -3 -319 -2 -584 3 -590 9 -11 1597 -22 1597 -10 0 3 -39 25 -87
47 -201 94 -449 249 -633 397 -230 183 -478 463 -463 521 4 16 0 23 -15 27
-12 3 -24 14 -27 24 -4 10 -12 19 -19 19 -7 0 -18 12 -24 26 -7 15 -17 22 -24
18 -6 -4 -8 -3 -4 4 3 6 -3 27 -15 47 -17 28 -24 33 -31 23 -6 -9 -7 -6 -3 9
4 15 -1 29 -16 44 -13 13 -24 31 -24 41 -1 10 -5 21 -10 25 -4 5 -4 -2 -1 -14z"/>
<path d="M4323 5345 c-35 -15 -53 -41 -53 -78 0 -33 28 -56 97 -76 38 -11 59
-23 61 -35 9 -43 -47 -59 -113 -32 -32 14 -36 14 -45 -5 -10 -17 -6 -21 24
-34 55 -23 130 -20 160 8 61 54 33 114 -67 142 -61 17 -78 35 -56 61 10 12 27
15 73 12 51 -2 61 0 64 14 2 12 -7 20 -35 27 -49 14 -71 13 -110 -4z"/>
<path d="M5985 5345 c-47 -17 -70 -43 -87 -96 -10 -34 -9 -46 8 -87 28 -68 72
-95 146 -90 53 4 98 26 98 48 0 17 -33 19 -62 4 -26 -13 -38 -14 -69 -5 -47
14 -69 44 -69 94 0 76 87 124 149 81 21 -15 24 -15 39 0 14 14 14 18 2 30 -17
15 -75 36 -99 36 -9 -1 -34 -7 -56 -15z"/>
<path d="M6680 5349 c-41 -16 -60 -40 -60 -74 0 -41 24 -62 97 -84 50 -15 58
-21 58 -41 0 -37 -44 -49 -101 -28 -42 15 -45 15 -54 -3 -27 -50 152 -69 191
-20 24 29 24 83 2 104 -10 8 -44 23 -76 32 -62 18 -78 35 -56 61 10 12 27 15
73 12 49 -2 61 0 64 13 2 11 -9 19 -36 27 -46 14 -68 14 -102 1z"/>
<path d="M8260 5342 c-44 -22 -60 -62 -39 -100 10 -20 32 -33 79 -49 75 -25
95 -46 66 -69 -26 -18 -73 -18 -110 1 -30 16 -45 9 -46 -22 0 -16 56 -33 112
-33 41 0 54 5 79 29 33 33 38 71 12 97 -21 20 -75 44 -102 44 -32 0 -53 27
-40 52 10 19 17 20 75 15 58 -6 64 -5 64 13 0 14 -11 22 -37 29 -52 15 -73 14
-113 -7z"/>
<path d="M4615 5338 c-3 -7 -3 -22 -1 -33 3 -11 5 -69 5 -128 l1 -108 103 3
c94 3 102 4 102 23 0 18 -8 20 -77 23 l-78 3 0 34 0 35 64 0 c49 0 65 4 70 16
10 27 -3 34 -70 34 l-64 0 0 35 0 35 75 0 c68 0 75 2 75 20 0 19 -7 20 -100
20 -72 0 -102 -4 -105 -12z"/>
<path d="M4970 5209 c0 -140 0 -140 23 -137 18 2 23 10 25 41 3 36 5 37 41 37
34 0 42 -5 65 -40 19 -29 33 -40 51 -40 31 0 31 5 -1 52 l-26 37 26 31 c36 44
35 92 -3 131 -28 28 -34 29 -115 29 l-86 0 0 -141z"/>
<path d="M5334 5273 c92 -214 87 -204 115 -201 22 3 32 19 83 133 32 72 58
134 58 138 0 5 -12 7 -26 5 -23 -3 -31 -16 -67 -100 -23 -54 -44 -98 -47 -98
-3 0 -25 45 -49 100 -40 93 -46 100 -72 100 l-28 0 33 -77z"/>
<path d="M5700 5209 l0 -140 28 3 27 3 3 138 3 137 -31 0 -30 0 0 -141z"/>
<path d="M6282 5213 l3 -138 105 0 c98 0 105 1 105 20 0 18 -8 20 -77 23 l-78
3 0 34 0 35 65 0 c63 0 65 1 65 25 0 24 -2 25 -65 25 l-65 0 0 35 0 35 75 0
c68 0 75 2 75 20 0 19 -7 20 -105 20 l-106 0 3 -137z"/>
<path d="M7158 5344 c-9 -9 -11 -235 -2 -258 3 -9 17 -16 30 -16 21 0 24 5 24
39 l0 38 62 6 c54 5 67 10 90 36 36 40 37 89 4 128 -23 26 -30 28 -113 31 -48
2 -91 0 -95 -4z"/>
<path d="M7520 5210 l0 -141 98 3 c89 3 97 5 97 23 0 18 -8 20 -72 23 l-73 3
0 114 0 115 -25 0 -25 0 0 -140z"/>
<path d="M7837 5343 c-4 -3 -7 -44 -7 -91 0 -131 36 -182 127 -182 91 1 123
49 123 188 0 91 0 92 -24 92 -24 0 -24 -2 -28 -100 -3 -114 -15 -134 -73 -134
-54 0 -64 22 -65 137 0 95 -1 97 -23 97 -13 0 -27 -3 -30 -7z"/>
</g>
</svg>
